<?xml version="1.0" encoding="UTF-8"?>
<!DOCTYPE svg PUBLIC "-//W3C//DTD SVG 1.1//EN" "http://www.w3.org/Graphics/SVG/1.1/DTD/svg11.dtd">
<!-- Creator: CorelDRAW -->
<svg xmlns="http://www.w3.org/2000/svg" xml:space="preserve" width="2048px" height="2048px" style="shape-rendering:geometricPrecision; text-rendering:geometricPrecision; image-rendering:optimizeQuality; fill-rule:evenodd; clip-rule:evenodd"
viewBox="0 0 2048 2048"
 xmlns:xlink="http://www.w3.org/1999/xlink">
 <defs>
  <style type="text/css">
   <![CDATA[
    .fil1 {fill:none}
    .fil0 {fill:#212121;fill-rule:nonzero}
   ]]>
  </style>
 </defs>
 <g id="Layer_x0020_1">
  <metadata id="CorelCorpID_0Corel-Layer"/>
  <path class="fil0" d="M526.43 730.629c4.81418,-12.3225 -1.27087,-26.2169 -13.5933,-31.0311 -12.3225,-4.81418 -26.2169,1.27087 -31.0311,13.5933 -12.0095,30.7571 -30.1583,58.2532 -52.9642,81.0083 -22.8815,22.8307 -50.4237,40.9453 -81.1371,52.8591 -12.3225,4.76339 -18.45,18.6154 -13.6866,30.9378 4.76339,12.3225 18.6154,18.45 30.9378,13.6866 37.0288,-14.3634 70.1693,-36.1394 97.6371,-63.5457 27.5421,-27.4807 49.4174,-60.58 63.8375,-97.5083z"/>
  <path class="fil0" d="M857.519 794.947c3.41575,-1.97835 6.15945,-4.67244 8.15197,-7.78111l-11.5205 1.96536 3.36851 5.81575zm8.15197 -7.78111c4.68189,-7.30749 5.21575,-16.911 0.56693,-24.9378 -6.62717,-11.4425 -21.2764,-15.3461 -32.7189,-8.7189l20.6315 35.6221 11.5205 -1.96536zm-33.0957 20.6551c-22.5142,10.2638 -45.665,17.2854 -68.9375,21.2811 -57.7229,9.91064 -116.223,1.25197 -167.661,-22.6417 -51.5162,-23.9303 -96.006,-63.1394 -125.615,-114.282 -7.69489,-13.291 -14.3835,-27.3721 -19.9252,-42.1843 -28.4693,23.087 -51.1701,52.5367 -66.2752,85.7776 -18.8445,41.4674 -25.8839,88.8355 -17.5937,137.112 10.9973,64.0536 46.9016,117.574 96.0556,152.321 49.2107,34.787 111.695,50.8016 175.782,39.7973 64.056,-10.9984 117.576,-46.904 152.322,-96.0568 32.1284,-45.45 48.2422,-102.223 41.8477,-161.124zm-76.9997 -25.9701c22.6004,-3.88111 45.0473,-11.1874 66.6532,-22.2012 -16.0606,-49.1977 -47.4555,-90.3154 -87.7619,-118.807 -48.9071,-34.5721 -110.924,-50.5973 -174.595,-39.9933 -1.83189,0.4063 -3.74174,0.604725 -5.70119,0.565748l0.00236221 -0.0885827 -4.7941 -0.0968505c-2.34803,0.16063 -4.75985,-0.022441 -7.17048,-0.592914l0.00708662 -0.0318898c-19.402,-4.60276 -41.8536,-15.7772 -61.1504,-30.2374 0.577559,6.37914 1.42087,12.8114 2.53229,19.2803 4.96654,28.9276 14.7272,55.2567 28.2024,78.5304 24.5421,42.391 61.4634,74.9127 104.239,94.7824 42.8563,19.9075 91.5461,27.1299 139.537,18.8906zm-318.76 -181.482c-0.16063,-0.884646 -0.317717,-1.77047 -0.470079,-2.65866 -2.56063,-14.9043 -3.9,-30.2575 -4.01693,-45.8941 -0.100394,-13.4776 0.766536,-26.9764 2.60197,-40.389 -0.264567,-5.48741 1.34055,-11.0929 4.95473,-15.7866l0.00472441 0.00354331c5.12363,-7.07599 13.9417,-11.0906 23.1638,-9.64843 9.80552,1.53307 17.289,8.80276 19.5709,17.8559 5.78622,9.63426 15.5469,19.3902 26.8382,27.9071 13.6488,10.2945 28.8555,18.2232 41.713,21.6756l1.45276 0.0283465c76.3737,-12.561 150.73,6.7193 209.4,48.1937 59.2418,41.876 102.506,106.335 115.746,183.444 13.2354,77.0753 -6.02363,152.222 -47.8607,211.407 -41.8772,59.2406 -106.336,102.506 -183.447,115.746 -77.0764,13.2354 -152.223,-6.02481 -211.407,-47.8618 -59.2418,-41.8772 -102.506,-106.336 -115.745,-183.445 -9.96733,-58.043 -1.50236,-114.997 21.1583,-164.861 21.0236,-46.265 54.2682,-86.4308 96.3414,-115.716zm16.5638 -5.56536l22.5047 -3.83977c-7.39134,-4.42678 -16.9276,-4.70552 -24.7914,0.0921261l2.28662 3.74764zm22.5047 -3.83977l-22.5047 3.83977 22.6512 37.128c11.2866,-6.88583 14.8547,-21.6201 7.9689,-32.9067 -2.08819,-3.42284 -4.89922,-6.13465 -8.11536,-8.06103zm-18.0295 -81.4867l0.00354331 0 -0.00354331 -0.00236221 -0.00354331 -0.0011811 0.00354331 0.00354331z"/>
  <path class="fil0" d="M834.669 1309.21c-15.7902,-39.763 -40.9961,-69.3567 -77.4863,-89.041 -38.8571,-20.9587 -91.0288,-31.291 -158.64,-31.291 -63.5351,0 -114.758,12.665 -153.722,33.4122 -41.2489,21.965 -68.7898,53.0209 -82.4906,87.4052l-51.3 261.736 575.03 0 -51.391 -262.221zm-54.7996 -131.228c47.0115,25.3595 79.3323,63.2717 99.3957,114.083 0.986221,1.93937 1.72441,4.04646 2.16378,6.28701l-23.5524 4.61575 23.5311 -4.59331 57.091 291.298c0.454725,1.84606 0.696851,3.77362 0.696851,5.75906 0,13.2543 -10.7457,24 -24,24l-632.898 0c-1.65236,0.0259843 -3.33189,-0.116929 -5.01851,-0.447638 -13.0075,-2.54882 -21.4854,-15.1606 -18.9366,-28.1681l0.0248032 0.00472441 57.0957 -291.307c0.251575,-1.72205 0.694489,-3.44055 1.34291,-5.13307l0.0236221 0.00944883c17.4225,-45.4347 52.676,-86.1615 105.491,-114.286 45.7429,-24.3567 104.597,-39.2256 176.222,-39.2256 75.6107,0 135.252,12.2516 181.327,37.1044z"/>
  <path class="fil0" d="M737.969 1201.33c6.67796,-11.3906 2.85827,-26.041 -8.53229,-32.7189 -11.3906,-6.67796 -26.041,-2.85827 -32.7189,8.53229 -10.3358,17.5429 -25.024,31.7575 -42.2977,41.6292 -17.1591,9.80552 -36.8681,15.2114 -57.3685,15.2114 -19.7528,0 -38.7284,-4.95591 -55.3524,-14.0126 -16.6784,-9.08505 -31.1362,-22.3158 -41.7933,-38.8276 -7.14449,-11.1319 -21.9626,-14.3634 -33.0945,-7.2189 -11.1319,7.14449 -14.3634,21.9626 -7.2189,33.0945 15.0532,23.3244 35.5441,42.0496 59.2311,54.952 23.7437,12.9343 50.5689,20.0126 78.228,20.0126 28.9382,0 56.83,-7.67127 81.182,-21.587 24.2362,-13.8508 44.9752,-34.0122 59.7355,-59.067z"/>
  <path class="fil0" d="M635.195 553.349c0,13.2543 10.7457,24 24,24 13.2543,0 24,-10.7457 24,-24l0 -76.78 1008 0 0 957.781 -802.575 0c-13.2543,0 -24,10.7457 -24,24 0,13.2543 10.7457,24 24,24l826.575 0c13.2543,0 24,-10.7457 24,-24l0 -1005.78c0,-13.2543 -10.7457,-24 -24,-24l-1056 0c-13.2543,0 -24,10.7457 -24,24l0 100.78z"/>
  <path class="fil0" d="M966.546 911.064c1.8815,0 4.4941,0.155906 7.83898,0.470079 3.34607,0.312992 6.16772,0.470079 8.46733,0.470079 7.10788,0 17.9788,-1.14921 32.6138,-3.39685 5.43544,-12.5965 10.5047,-30.6272 15.2091,-54.1985 4.7563,-23.5725 9.8256,-49.0252 15.313,-76.5166 5.54056,-27.4394 9.14646,-45.4701 10.8721,-54.0414 -17.9799,11.9162 -29.687,17.8736 -35.1225,17.8736 -6.0626,0 -9.0945,-4.28504 -9.0945,-12.8563 6.89882,-3.34488 17.5087,-10.2969 31.9347,-20.8536 14.4248,-10.5579 27.9095,-21.4819 40.5048,-32.7709 2.71772,2.50866 4.07717,6.6378 4.07717,12.3343 0,3.55394 -0.993308,9.0945 -2.97992,16.5685 -1.98543,7.47402 -3.29173,13.2756 -3.9189,17.5087 -5.38347,25.3488 -9.72166,45.6792 -12.9626,60.8882 -3.23977,15.2622 -7.42087,35.0705 -12.6473,59.53 -5.17441,24.4606 -11.8642,45.5752 -20.0705,63.3461 5.3315,-0.418111 9.19843,-0.627166 11.6551,-0.627166 19.024,0 30.2091,7.31693 33.554,21.9508 -10.2437,-1.25433 -19.8603,-1.8815 -28.8496,-1.8815 -6.89882,0 -16.8295,0.470079 -29.739,1.41142 -12.9095,0.940158 -20.6977,1.41142 -23.4154,1.41142 -12.9614,0 -24.0414,-5.54056 -33.2398,-16.6205zm131.707 -12.4394c0,-10.9228 8.88544,-16.4114 26.6551,-16.4114 8.5193,0 19.9134,1.35945 34.1292,4.07717 20.6965,-17.9799 39.7217,-42.1784 57.0213,-72.5965 17.3516,-30.4181 26.028,-57.8575 26.028,-82.317 0,-14.2169 -3.08386,-24.9827 -9.25158,-32.2996 -6.16654,-7.31693 -14.3728,-10.976 -24.6166,-10.976 -13.3276,0 -23.6764,5.64449 -30.9933,16.9335 -7.31693,11.289 -10.9748,24.2516 -10.9748,38.8855 0,8.98938 1.98543,18.0839 5.95748,27.2823l-5.95748 -0.627166c-16.0984,-1.67244 -24.1465,-11.7071 -24.1465,-30.1051 0,-17.4555 6.63662,-32.7177 19.9122,-45.8363 13.2756,-13.1185 29.8441,-19.7032 49.6524,-19.7032 18.1878,0 32.2465,5.80158 42.1772,17.3516 9.93072,11.55 14.8961,26.4461 14.8961,44.739 0,24.6685 -8.78032,51.5859 -26.3421,80.7497 -17.5606,29.1638 -38.3103,53.4662 -62.3516,72.9095 31.0973,6.68977 52.6311,10.0347 64.5473,10.0347 5.01733,0 9.35552,-0.679134 13.0134,-1.98662 3.65906,-1.3063 9.04253,-3.763 16.1504,-7.42087 -3.34488,12.1772 -7.89213,21.0626 -13.6417,26.55 -5.74843,5.48859 -13.2225,8.25827 -22.4209,8.25827 -4.80827,0 -10.8189,-0.836221 -18.0319,-2.45669 -7.213,-1.62047 -13.1705,-3.1878 -17.8748,-4.7563 -4.65118,-1.51536 -12.0213,-4.02402 -22.0559,-7.47402l-19.1291 -6.63662c-14.4248,8.78032 -26.8642,13.1705 -37.265,13.1705 -7.42087,0 -13.4315,-1.82953 -18.0827,-5.48859 -4.65237,-3.65788 -7.00394,-8.25709 -7.00394,-13.8496zm14.4248 0.993308c0.418111,3.44882 3.763,5.17441 10.0347,5.17441 4.96536,0 11.3421,-2.1437 19.0772,-6.48189 -7.9441,-2.35158 -14.5299,-3.55394 -19.7043,-3.55394 -6.27166,0 -9.40749,1.62047 -9.40749,4.86142zm181.256 -18.0319c0,-8.98938 2.50866,-17.0386 7.47402,-24.1465 4.96418,-7.10788 11.863,-10.6618 20.7484,-10.6618 2.92677,0 6.58583,0.418111 10.976,1.25433 -3.763,3.13583 -6.89882,7.57796 -9.40749,13.3276 -2.50866,5.74961 -3.763,11.4461 -3.763,17.0906 0,9.19843 3.23977,17.4047 9.77363,24.6166 6.53268,7.213 14.6339,10.8189 24.3555,10.8189 12.7524,0 24.1453,-6.16654 34.2851,-18.502 10.1398,-12.3343 15.2091,-27.5953 15.2091,-45.7831 0,-13.3807 -3.29292,-25.4008 -9.87757,-36.0638 -6.58583,-10.6618 -17.3528,-17.9788 -32.4047,-21.9508 16.5154,-7.10788 29.9481,-18.1358 40.2969,-33.0839 10.2957,-14.948 15.4701,-29.2158 15.4701,-42.8055 0,-9.40749 -2.66575,-16.3583 -7.9441,-20.8536 -5.3315,-4.4941 -11.8642,-6.74174 -19.6524,-6.74174 -9.19843,0 -17.2465,2.71772 -24.2504,8.15316 -7.00394,5.43544 -10.5047,12.6484 -10.5047,21.6378 0,6.68977 2.09055,13.9028 6.27166,21.6378 -1.25433,2.71772 -3.45,5.22638 -6.48071,7.52599 -3.03189,2.29961 -6.06378,3.45 -8.99056,3.45 -4.44213,0 -8.04804,-2.87481 -10.8189,-8.62442 -2.76969,-5.74843 -4.12796,-12.0732 -4.12796,-18.9721 0,-14.3209 6.32363,-25.8709 18.9189,-34.7044 12.5965,-8.83229 27.1784,-13.2744 43.7469,-13.2744 14.4248,0 26.9162,4.02402 37.4729,12.0201 10.5579,7.99725 15.8374,18.8162 15.8374,32.5099 0,13.1705 -4.7563,26.4981 -14.2689,39.9827 -9.51261,13.4835 -21.4807,22.9441 -35.9055,28.3795 15.261,5.22638 26.4981,13.4847 33.7099,24.7736 7.213,11.289 10.8189,23.1012 10.8189,35.4355 0,20.3835 -8.57127,38.8323 -25.7138,55.2969 -17.1425,16.4634 -38.3622,24.6685 -63.6591,24.6685 -19.1811,0 -33.6059,-4.70433 -43.1705,-14.1638 -9.61654,-9.45946 -14.4248,-20.2264 -14.4248,-32.2477z"/>
  <path class="fil0" d="M1190.55 1206.46c0,-12.3402 4.36181,-26.0634 13.0311,-41.1697 8.72363,-15.1051 20.2122,-28.0831 34.5733,-38.9339 14.3079,-10.8508 28.5095,-16.2756 42.4985,-16.2756 8.9882,0 16.4882,2.39292 22.4988,7.23308 6.01063,4.84016 9.04253,11.0634 9.04253,18.5634 0,9.73347 -5.63859,14.8394 -16.9677,15.2658 7.12796,2.33977 10.7445,5.42481 10.7445,9.25394 0,2.5004 -2.92559,8.93623 -8.72363,19.2024 -5.79685,10.3181 -8.72245,17.9776 -8.72245,23.0835 0,7.60631 3.13819,11.4354 9.41457,11.4354 5.9563,0 13.5626,-4.14803 22.8177,-12.3921 9.25513,-8.29843 18.2445,-20.6917 26.9669,-37.2331l6.06378 6.06378c-7.87205,17.7118 -17.6587,31.9666 -29.361,42.7111 -11.7012,10.7976 -23.4555,16.1693 -35.2642,16.1693 -8.40355,0 -14.8925,-2.87244 -19.4138,-8.563 -4.52126,-5.69174 -6.75473,-12.1807 -6.75473,-19.4681 -9.57402,11.4898 -17.7662,19.8402 -24.574,25.1587 -6.80788,5.31969 -14.0421,7.97835 -21.7016,7.97835 -7.44568,0 -13.6689,-2.44606 -18.6697,-7.33938 -4.99961,-4.89331 -7.49882,-11.8087 -7.49882,-20.7437zm25.5307 1.59567c0,6.80788 2.44606,10.2118 7.34056,10.2118 2.76496,0 5.69056,-0.798426 8.7756,-2.3941 3.08504,-1.59567 6.43583,-3.98859 10.0524,-7.12678l9.8941 -9.57402c3.19134,-3.19134 6.80788,-7.34056 10.8508,-12.3933l9.46772 -12.0744 9.14764 -12.4453 7.55316 -10.4787c0.638977,-1.06417 1.48937,-1.59567 2.60669,-1.59567l0.637796 0 0.638977 0.318898c1.06299,-3.40394 1.59567,-7.28741 1.59567,-11.7543 0,-11.0102 -4.46811,-16.5425 -13.3512,-16.5425 -13.989,0 -28.35,10.3724 -43.0831,31.1693 -14.7331,20.7969 -22.1268,38.9882 -22.1268,54.6792zm120.953 -7.34056c0,-19.9996 6.32953,-46.8603 19.0417,-80.582 12.6591,-33.7217 27.1795,-63.5079 43.4552,-89.3587 16.2768,-25.8496 29.0421,-38.7744 38.3504,-38.7744 3.93544,0 7.02048,2.23347 9.20079,6.70158 2.1815,4.46811 3.35197,9.57402 3.56457,15.3189 0,10.2118 -3.29764,23.2961 -9.8941,39.254 -6.59528,15.9567 -15.6366,31.754 -27.1264,47.3918 -11.4886,15.6366 -23.4567,27.0732 -35.7957,34.3063 -2.92559,5.53229 -6.06378,14.628 -9.36142,27.287 -3.29764,12.6591 -4.94646,24.8386 -4.94646,36.541 0,20.6374 5.53111,30.9555 16.5414,30.9555 5.37166,0 11.1697,-2.49921 17.3929,-7.49882 6.17008,-5.00079 11.276,-11.224 15.1595,-18.6697 -7.34056,-4.25552 -13.0323,-10.1599 -17.0209,-17.713 -3.98977,-7.55197 -5.95748,-15.6898 -5.95748,-24.4134 0,-10.2118 2.65984,-18.5634 8.0315,-25.0524 5.37284,-6.48898 12.0744,-9.73347 20.1059,-9.73347 7.23308,0 12.978,2.71299 17.2335,8.1378 4.25433,5.42599 6.38268,13.3512 6.38268,23.7756 0,13.1917 -3.19134,26.5949 -9.57402,40.2118 0.637796,0 1.54252,0.0531496 2.71181,0.159449 1.17047,0.106299 2.1815,0.159449 3.03189,0.159449 15.9579,0 29.6799,-11.8087 41.1685,-35.4248l4.78701 6.70276c-5.74371,13.1906 -12.4984,22.924 -20.2642,29.2004 -7.76575,6.27638 -17.713,9.41457 -29.8394,9.41457 -2.97874,0 -5.21339,-0.106299 -6.70158,-0.318898 -14.2016,22.9772 -31.6477,34.467 -52.3394,34.467 -12.0201,0 -21.2752,-3.72402 -27.711,-11.1697 -6.43583,-7.44686 -9.62717,-17.8725 -9.62717,-31.2756zm46.8591 -85.8473c12.5528,-11.7024 24.3083,-27.978 35.3185,-48.828 10.9571,-20.8512 16.5414,-35.5311 16.7539,-44.041 -4.57323,1.70197 -12.8185,12.4996 -24.626,32.3918 -11.8087,19.8933 -20.9563,40.0524 -27.4465,60.4772zm20.4248 48.189c0,13.6169 4.57441,23.6162 13.7764,29.9988 3.83032,-8.50985 5.74489,-17.5524 5.74489,-27.1264 0,-14.8937 -3.08504,-22.3394 -9.25513,-22.3394 -2.81929,0 -5.21221,1.91457 -7.23426,5.74371 -2.02087,3.83032 -3.03189,8.40473 -3.03189,13.7232zm64.839 32.5524c0,-20.8512 7.44686,-39.9992 22.3394,-57.4453 14.8925,-17.4461 31.063,-26.1685 48.5091,-26.1685 8.19095,0 14.2547,2.12717 18.2433,6.38268 3.98977,4.25433 6.01063,9.57402 6.01063,15.9567 0,6.38268 -1.43622,12.287 -4.36181,17.7118 -2.87244,5.42599 -6.43583,8.1378 -10.6382,8.1378 -4.04174,0 -7.33938,-2.02087 -9.89292,-6.06378 6.80906,-4.68071 10.213,-12.6591 10.213,-23.9351 0,-3.61654 -2.02205,-5.42481 -6.06378,-5.42481 -10.4256,0 -21.3295,8.50985 -32.7118,25.5307 -11.3823,17.0209 -17.074,32.765 -17.074,47.2323 0,15.9567 7.44686,23.9351 22.3394,23.9351 0,0 0.10748,0 0.320079,0 12.5528,0 25.3713,-5.26536 38.4555,-15.7973 13.0843,-10.5319 23.0315,-24.2008 29.8394,-41.0091l6.38268 5.74489c-7.65945,19.3606 -19.4669,35.4236 -35.4236,48.189 -15.9579,12.7654 -32.1272,19.148 -48.5091,19.148 -11.4886,0 -20.6906,-3.56339 -27.6059,-10.6902 -6.91418,-7.12796 -10.3713,-17.6067 -10.3713,-31.4351z"/>
  <path class="fil0" d="M1670.55 1434.35c-13.2543,0 -24,10.7457 -24,24 0,13.2543 10.7457,24 24,24l95.5583 0c13.2543,0 24,-10.7457 24,-24 0,-13.2543 -10.7457,-24 -24,-24l-95.5583 0z"/>
 </g>
 <rect class="fil1" width="2048" height="2048"/>
</svg>
