<svg xmlns="http://www.w3.org/2000/svg" viewBox="0 0 48 48"><defs><style>.cls-1{fill:#1e0f00;}</style></defs><title>Asset 521</title><g id="Layer_2" data-name="Layer 2"><g id="_1" data-name="1"><rect class="cls-1" x="45" y="13" width="2" height="34"/><rect class="cls-1" x="1" y="13" width="2" height="34"/><rect class="cls-1" y="46" width="48" height="2"/><rect class="cls-1" x="18" y="32" width="12" height="2"/><path class="cls-1" d="M47,14H36a1,1,0,0,1-.71-.29L24,2.41,12.71,13.71A1,1,0,0,1,12,14H1a1,1,0,0,1-.92-.62,1,1,0,0,1,.21-1.09l8-8A1,1,0,0,1,9,4H19.59L23.29.29a1,1,0,0,1,1.42,0L28.41,4H39a1,1,0,0,1,.71.29l8,8a1,1,0,0,1,.21,1.09A1,1,0,0,1,47,14ZM36.41,12h8.18l-6-6H30.41Zm-33,0h8.18l6-6H9.41Z"/><path class="cls-1" d="M28,48H20a1,1,0,0,1-1-1V33a1,1,0,0,1,1-1h8a1,1,0,0,1,1,1V47A1,1,0,0,1,28,48Zm-7-2h6V34H21Z"/><path class="cls-1" d="M14,42H8a2,2,0,0,1-2-2V34a2,2,0,0,1,2-2h6a2,2,0,0,1,2,2v6A2,2,0,0,1,14,42ZM8,34v6h6V34Z"/><path class="cls-1" d="M40,42H34a2,2,0,0,1-2-2V34a2,2,0,0,1,2-2h6a2,2,0,0,1,2,2v6A2,2,0,0,1,40,42Zm-6-8v6h6V34Z"/><path class="cls-1" d="M14,28H8a2,2,0,0,1-2-2V20a2,2,0,0,1,2-2h6a2,2,0,0,1,2,2v6A2,2,0,0,1,14,28ZM8,20v6h6V20Z"/><path class="cls-1" d="M40,28H34a2,2,0,0,1-2-2V20a2,2,0,0,1,2-2h6a2,2,0,0,1,2,2v6A2,2,0,0,1,40,28Zm-6-8v6h6V20Z"/><path class="cls-1" d="M27,28H21a2,2,0,0,1-2-2V20a2,2,0,0,1,2-2h6a2,2,0,0,1,2,2v6A2,2,0,0,1,27,28Zm-6-8v6h6V20Z"/><path class="cls-1" d="M24,15a4,4,0,1,1,4-4A4,4,0,0,1,24,15Zm0-6a2,2,0,1,0,2,2A2,2,0,0,0,24,9Z"/></g></g></svg>