<svg xmlns="http://www.w3.org/2000/svg" viewBox="0 0 32 32"><defs><style>.cls-1{fill:#231f20;}</style></defs><g id="instructor"><path class="cls-1" d="M27.93,2H19.07A2.07,2.07,0,0,0,17,4.07V9.93A2.07,2.07,0,0,0,19.07,12H20v2a1,1,0,0,0,.62.92A.84.84,0,0,0,21,15a1,1,0,0,0,.71-.29L24.41,12h3.52A2.07,2.07,0,0,0,30,9.93V4.07A2.07,2.07,0,0,0,27.93,2ZM28,9.93a.07.07,0,0,1-.07.07H24a1,1,0,0,0-.71.29L22,11.59V11a1,1,0,0,0-1-1l-2-.07L19.07,4,28,4.07Z"/><path class="cls-1" d="M21.62,9h1A.22.22,0,0,0,22.79,9l.06-.09L23,8.5h1.17l.14.36a.24.24,0,0,0,.06.09A.21.21,0,0,0,24.5,9h1a.12.12,0,0,0,.09,0,.11.11,0,0,0,0-.08v0L24.41,5.35a.42.42,0,0,0-.08-.12.24.24,0,0,0-.17-.06H23a.24.24,0,0,0-.17.06.25.25,0,0,0-.07.12L21.51,8.84a.06.06,0,0,0,0,0,.14.14,0,0,0,.12.12Zm1.94-2.58.32,1h-.62Z"/><path class="cls-1" d="M23,28H17V22a6,6,0,0,0-3.44-5.39A6.5,6.5,0,1,0,5.36,6.49,1,1,0,0,0,6.64,8,4.5,4.5,0,1,1,5,11.5a4.62,4.62,0,0,1,.17-1.23,1,1,0,0,0-1.93-.54A6.57,6.57,0,0,0,3,11.5a6.49,6.49,0,0,0,2.44,5.07A6,6,0,0,0,2,22v7a1,1,0,0,0,1,1H23a1,1,0,0,0,0-2ZM13,28V24a1,1,0,0,0-2,0v4H8V24a1,1,0,0,0-2,0v4H4V22a4,4,0,0,1,4-4H11a4,4,0,0,1,4,4v6Z"/><path class="cls-1" d="M29,28H26a1,1,0,0,0,0,2h3a1,1,0,0,0,0-2Z"/></g></svg>