<svg xmlns="http://www.w3.org/2000/svg" viewBox="0 0 512 512"><g id="Online_class_real-time"><path d="M465.335,97.4229H437.7141l-.0791-73.55a15.4771,15.4771,0,0,0-15.46-15.46H261.725a15.4792,15.4792,0,0,0-15.47,15.46v49.59L212.88,97.4229H196.428V94.8556a30.6907,30.6907,0,0,0-30.653-30.6527h-40.18a30.6853,30.6853,0,0,0-30.65,30.65v2.57H46.665a31.56,31.56,0,0,0-31.53,31.53v257.97a31.56,31.56,0,0,0,31.53,31.53H218.19l-10.2839,75.1342H183.5232a5,5,0,0,0,0,10H330.3977a5,5,0,0,0,0-10H306.0151l-10.2838-75.1342H465.335a31.56,31.56,0,0,0,31.53-31.53v-257.97A31.56,31.56,0,0,0,465.335,97.4229ZM217.9993,493.5871l10.2837-75.1328h57.3555l10.2836,75.1328ZM421.806,196.5454a13.5882,13.5882,0,1,1,20.0073.0415,16.5523,16.5523,0,0,0-4.3677,12.81A15.4117,15.4117,0,0,0,443.7581,220.5a20.3473,20.3473,0,0,0,4.1749,2.3564l.0009,0a17.2781,17.2781,0,0,1,10.2285,15.9678V255.331H405.8661V238.664a17.03,17.03,0,0,1,10.1508-15.7754,20.104,20.104,0,0,0,2.2544-1.0971,15.7033,15.7033,0,0,0,7.8028-11.2866A16.7074,16.7074,0,0,0,421.806,196.5454Zm29.5879,18.0029a11.311,11.311,0,0,1-2.3252-1.3144,6.5228,6.5228,0,0,1-2.665-4.7032,7.5464,7.5464,0,0,1,2.0151-5.8305,22.5881,22.5881,0,1,0-33.2422-.0684,7.7568,7.7568,0,0,1,2.0073,6.4712,6.6614,6.6614,0,0,1-3.3452,4.856,11.2773,11.2773,0,0,1-1.2466.6069,25.7772,25.7772,0,0,0-15.726,24.0981v16.6689H378.235v-104.47h108.63v104.47H467.1624V238.8247A26.028,26.028,0,0,0,451.3939,214.5483ZM369.235,177.8025c-.0835-.0644-.1579-.1374-.2425-.2008l-16.11-12.0644,9.68-12.9268a14.8839,14.8839,0,0,0,1.1088-1.7476h5.5639Zm-24.3636,33.9408a22.3371,22.3371,0,0,0-12.7564,8.3428l-4.3359,5.791-20.7153-15.5146,4.8593-6.4893a22.1954,22.1954,0,0,0,4.4361-12.5674l.1831-5.1172a15.2417,15.2417,0,0,1,3.0439-8.624l27.4146-36.6074a4.7206,4.7206,0,1,1,7.5571,5.6592l-12.6768,16.9287a5,5,0,0,0,1.0049,6.999l20.1123,15.0615a11.7349,11.7349,0,0,1,2.3584,16.4287l-2.5654,3.4268a8.6745,8.6745,0,0,1-4.9566,3.2412ZM197.0906,271.9582a5.0013,5.0013,0,0,0-3.4731,4.7617v63.959H112.6824V277.8263a5,5,0,0,0-10,0v62.8526H64.263V247.5294a31.0714,31.0714,0,0,1,31.0361-31.0361h26.8125l12.4168,7.3534,12.7366,7.5462a14.9647,14.9647,0,0,0,7.64,2.12,14.6351,14.6351,0,0,0,3.6342-.4651c.0346-.0089.07-.0153.1042-.0244.2153-.0568.4288-.1243.6425-.191.1055-.0329.2119-.0609.317-.0961.1114-.0375.2212-.0827.332-.123a15.3886,15.3886,0,0,0,2.392-1.0975,14.8042,14.8042,0,0,0,7.2676-9.994,15.3444,15.3444,0,0,0,.3-3.0288v-2h28.2083a35.1471,35.1471,0,0,1,31.4072,19.1944l13.68,26.69a11.2293,11.2293,0,0,0,19.07,1.4912l34.6485-47.5518,28.9751,22.7315-40.1372,54.3945a42.8912,42.8912,0,0,1-69.4053-.5254l-13.6563-19.1054A5.0007,5.0007,0,0,0,197.0906,271.9582ZM25.135,340.6789V150.8629H80.8634a22.3884,22.3884,0,0,0,16.4116,10.56,50.4434,50.4434,0,0,0,21.21,27.6944v17.376H95.2991A41.0829,41.0829,0,0,0,54.263,247.5294v93.1495Zm185.9082-189.816H327.09l-15.5077,20.7076a25.19,25.19,0,0,0-5.0327,14.26l-.1831,5.1172a12.244,12.244,0,0,1-2.4468,6.9317l-5.3259,7.1116a4.9522,4.9522,0,0,0-6.7151,1.2507l-37.7,51.7392a1.2293,1.2293,0,0,1-2.0879-.1631l-13.68-26.69a45.1081,45.1081,0,0,0-40.3066-24.6338H169.895V190.798A51.0071,51.0071,0,0,0,193.4564,163.31,21.6606,21.6606,0,0,0,211.0432,150.8629Zm-51.1484,60.63v6.9981a4.7947,4.7947,0,0,1-1.3892,3.464,5.23,5.23,0,0,1-1.8707,1.2155,4.8618,4.8618,0,0,1-2.7572.213,5.0465,5.0465,0,0,1-1.5127-.601l-23.88-14.14V193.9847a51.0373,51.0373,0,0,0,31.41.936v16.5708Zm31.5332-58.0849a11.6187,11.6187,0,1,1,11.6187-11.6192A11.6317,11.6317,0,0,1,191.428,153.4084Zm-5.003-58.5555v10.7205l-59.453-.3252H126.89a14.9451,14.9451,0,0,0-14.6831,12.5937l-.5171,3.3536a3.05,3.05,0,0,1-5.6206,1.1181l-1.123-1.8486V94.8556a20.4887,20.4887,0,0,1,2.0813-8.9751,20.7914,20.7914,0,0,1,8.7352-9.18,20.5265,20.5265,0,0,1,9.8358-2.4961h40.1773A20.7252,20.7252,0,0,1,186.425,94.8529ZM97.3083,127.1535l.2135.3515a12.9044,12.9044,0,0,0,11.0859,6.2832,13.4325,13.4325,0,0,0,2.6147-.2588,12.9247,12.9247,0,0,0,10.35-10.8105l.5176-3.3535a4.8853,4.8853,0,0,1,4.8-4.1172h.0269l59.5082.3253v5.1883A21.6851,21.6851,0,0,0,170.4,136.7892h-4.8133a5.0108,5.0108,0,0,0-.9536.0961,21.619,21.619,0,1,0,0,9.8078,5.0089,5.0089,0,0,0,.9535.0961h4.8132a21.7,21.7,0,0,0,12.9126,15.0324,40.7371,40.7371,0,0,1-77.317-6.4187,4.9909,4.9909,0,0,0-4.86-3.88c-.12,0-.24.01-.35.02l-.17.01c-.22.01-.44.03-.67.03a12.3566,12.3566,0,0,1-2.6367-24.4294Zm57.8922,14.6357a11.6187,11.6187,0,1,1-11.6187-11.6181A11.6317,11.6317,0,0,1,155.2005,141.7892ZM465.335,107.4229a21.5565,21.5565,0,0,1,21.53,21.53v11.91H436.74a15.392,15.392,0,0,0,1.0147-5.47l-.03-27.97Zm-211.16-27.33a4.99,4.99,0,0,0,2.08-4.06v-52.16a5.4756,5.4756,0,0,1,5.47-5.46h160.45a5.4692,5.4692,0,0,1,5.46,5.47l.12,111.52a5.467,5.467,0,0,1-5.46,5.46H365.19a14.7024,14.7024,0,0,0-26.1929-5.9l-4.4184,5.9H261.845a5.4713,5.4713,0,0,1-5.46-5.48l-.13-32.98a4.9912,4.9912,0,0,0-5-4.98h-21.21Zm-39.68,27.33h31.78l.11,27.98a15.3681,15.3681,0,0,0,1.013,5.46H213.0232a21.655,21.655,0,0,0-16.5982-20.1024v-10.13c0-.01.003-.02.003-.03v-3.1778Zm-167.83,0h48.28v10a22.4073,22.4073,0,0,0-17.36,21.8c0,.5531.0373,1.097.077,1.64H25.135v-11.91A21.5565,21.5565,0,0,1,46.665,107.4229Zm418.67,301.03H46.665a21.5565,21.5565,0,0,1-21.53-21.53v-36.244H414.9915a5,5,0,0,0,0-10H203.6175V292.3136l4.5883,6.419a52.891,52.891,0,0,0,85.5874.6484l43.02-58.3008a5,5,0,0,0-.937-6.9023l-1.1465-.8995,5.39-7.1982a12.3159,12.3159,0,0,1,7.0352-4.6006h0l12.9629-3.041a18.6847,18.6847,0,0,0,9.117-5.1836v46.5779a4.5068,4.5068,0,0,0,4.5,4.5h113.13v76.346H437.3772a5,5,0,0,0,0,10H486.865v36.244A21.5565,21.5565,0,0,1,465.335,408.4529Z"/><path d="M308.2278,93.3849a29.5127,29.5127,0,1,0-29.5127-29.5127A29.5459,29.5459,0,0,0,308.2278,93.3849Zm0-49.0254a19.5127,19.5127,0,1,1-19.5127,19.5127A19.5346,19.5346,0,0,1,308.2278,44.36Z"/><path d="M349.3806,113.7082h54.7408a5,5,0,0,0,4.2675-7.6055L381.0183,61.2668a5,5,0,0,0-8.5351,0l-27.37,44.8359a5,5,0,0,0,4.2675,7.6055Zm27.37-40.24,18.46,30.24h-36.92Z"/><path d="M383.281,46.6242h6.2857V52.91a4,4,0,1,0,8,0V46.6242h6.2856a4,4,0,0,0,0-8h-6.2856V32.338a4,4,0,0,0-8,0v6.2862H383.281a4,4,0,0,0,0,8Z"/><path d="M307.9041,114.5685H287.3328a4,4,0,0,0,0,8h20.5713a4,4,0,0,0,0-8Z"/><path d="M256,362.8908a16.7236,16.7236,0,1,0,16.7236,16.7236A16.7422,16.7422,0,0,0,256,362.8908Zm0,23.4472a6.7236,6.7236,0,1,1,6.7236-6.7236A6.7314,6.7314,0,0,1,256,386.338Z"/></g></svg>