<?xml version="1.0" encoding="utf-8"?>
<!-- Generator: Adobe Illustrator 23.0.2, SVG Export Plug-In . SVG Version: 6.00 Build 0)  -->
<svg version="1.1" id="Layer_1" xmlns="http://www.w3.org/2000/svg" xmlns:xlink="http://www.w3.org/1999/xlink" x="0px" y="0px"
	 viewBox="0 0 2048 2048" style="enable-background:new 0 0 2048 2048;" xml:space="preserve">
<style type="text/css">
	.st0{fill:#4D5D7A;}
	.st1{fill:#A8B0BC;}
	.st2{fill:#FFFFFF;}
	.st3{fill:#EBB39E;}
	.st4{fill:#F7E07F;}
	.st5{fill:#ECF0F9;}
	.st6{fill:#EBCD6D;}
	.st7{fill:#F4BAA6;}
	.st8{fill:#784132;}
</style>
<path class="st0" d="M725.33,503.89h1046.01c11.41,0,20.66,9.25,20.66,20.66v807.83c0,11.41-9.25,20.66-20.66,20.66H725.33
	c-11.41,0-20.66-9.25-20.66-20.66V524.55C704.68,513.14,713.93,503.89,725.33,503.89z"/>
<rect x="753.74" y="550.16" class="st1" width="989.2" height="756.61"/>
<g>
	<path class="st2" d="M1045.66,869.17c-2.14-5.62-3.94-10.22-5.37-13.69c-1.52-3.69-3.41-7.19-5.63-10.4
		c-2.44-3.53-5.66-6.45-9.59-8.68c-4.02-2.27-8.98-3.43-14.73-3.43c-5.67,0-10.59,1.15-14.61,3.43c-3.95,2.24-7.18,5.21-9.62,8.85
		c-2.22,3.3-4.31,7.46-6.23,12.35c-1.8,4.59-3.34,8.52-4.6,11.78L930.4,983.31c-1.87,4.64-3.25,8.35-4.08,11.02
		c-0.94,3-1.41,5.97-1.41,8.84c0,5.48,2.23,10.38,6.62,14.57c4.33,4.13,9.42,6.22,15.13,6.22c6.81,0,11.91-2.19,15.16-6.5
		c2.61-3.47,5.57-9.68,9.04-18.98l7.23-19.42h64.78l7.22,18.97l0.05,0.12c1.12,2.71,2.48,5.91,4.05,9.5
		c1.74,3.97,3.37,6.89,4.99,8.94c1.78,2.26,4.01,4.06,6.63,5.37c2.65,1.32,5.78,2,9.31,2c6.07,0,11.33-2.18,15.63-6.48
		c4.3-4.3,6.48-9.19,6.48-14.55c0-4.59-1.88-11.32-5.73-20.58L1045.66,869.17z M1029.78,942.87h-38.9l19.27-53.74L1029.78,942.87z"
		/>
	<path class="st2" d="M1301.91,922.53c13.28-8.97,20.01-21.66,20.01-37.77c0-5.64-0.94-11.08-2.8-16.17c-1.86-5.09-4.59-9.8-8.13-14
		c-3.52-4.18-7.62-7.68-12.18-10.4c-5.36-3.25-11.48-5.47-18.19-6.61c-6.39-1.08-13.98-1.62-22.58-1.62h-56.86
		c-8.85,0-15.52,2.18-19.82,6.48c-4.3,4.3-6.48,11.05-6.48,20.06v131.93c0,8.81,2.11,15.49,6.28,19.86
		c4.23,4.43,10.96,6.68,20.02,6.68h53.63c9.42,0,17.81-0.48,24.92-1.42c7.32-0.97,13.95-2.67,19.72-5.09
		c9.37-4.12,16.92-10.58,22.44-19.21c5.5-8.6,8.29-18.38,8.29-29.07C1330.18,945.99,1320.68,931.33,1301.91,922.53z M1219.92,943.03
		h32.25c11.39,0,19.91,1.76,25.33,5.23c4.88,3.13,7.15,7.98,7.15,15.28c0,9.11-3.24,21.23-31.29,21.23h-33.44V943.03z
		 M1275.21,898.35l-0.04,0.07c-1.99,3.66-4.75,6.07-8.46,7.36c-4.31,1.49-10.69,2.25-18.98,2.25h-27.82v-35.88h24.1
		c12.17,0,21.21,1.32,26.86,3.93c4.57,2.11,6.7,6.36,6.7,13.35C1277.59,892.79,1276.84,895.62,1275.21,898.35z"/>
	<path class="st2" d="M1565.78,946.37L1565.78,946.37c-3.52-3.52-8.24-5.6-13.21-5.76c-6.98-0.22-12.21,1.87-15.54,6.21
		c-2.55,3.33-4.69,7.58-6.32,12.57c-3.24,8.86-8.05,15.62-14.29,20.1c-6.21,4.45-14,6.71-23.15,6.71c-8.46,0-15.9-2.01-22.11-5.96
		c-6.16-3.92-11.03-10.02-14.46-18.14c-3.56-8.43-5.37-19.26-5.37-32.21c0-19.25,4.03-34.18,11.98-44.37
		c7.78-9.97,17.97-14.81,31.16-14.81c8.16,0,15.04,1.89,20.47,5.63c5.6,3.85,10.59,9.85,14.84,17.83c3.06,5.78,5.85,9.82,8.53,12.36
		c3.18,3.01,7.72,4.53,13.5,4.53c5.43,0,10.11-2.08,13.9-6.2c3.69-4,5.57-8.71,5.57-13.99c0-8.39-3.27-17.27-9.73-26.39
		c-6.33-8.93-15.48-16.5-27.21-22.49c-11.72-5.98-25.21-9.02-40.11-9.02c-12.21,0-23.88,2.21-34.7,6.57
		c-10.87,4.38-20.48,10.86-28.58,19.24c-8.09,8.38-14.38,18.59-18.7,30.33c-4.28,11.65-6.46,24.97-6.46,39.59
		c0,8.99,0.86,17.62,2.56,25.64c1.7,8.07,4.3,15.79,7.73,22.92c3.43,7.15,7.64,13.71,12.52,19.53c5.5,6.43,11.63,11.69,18.22,15.65
		c6.58,3.95,13.99,6.9,22.02,8.76c7.9,1.83,16.76,2.76,26.33,2.76c12.8,0,24.22-2.1,33.94-6.25c9.74-4.15,17.89-9.66,24.22-16.38
		c6.27-6.65,10.95-13.57,13.91-20.56c2.99-7.06,4.51-13.79,4.51-19.99C1571.77,955.09,1569.75,950.24,1565.78,946.37z"/>
</g>
<g>
	<g>
		<path class="st3" d="M712.11,1052.37c-2.12,7.65-4.07,13.19-3.77,24.79c0.63,23.95,9.58,45.63,18.19,60.98l139.39,139.39H415.57
			l115.02-129.03c15.8-17.72,25.98-39.89,28.35-63.51c0.26-2.59,0.43-5.2,0.5-7.83c0.34-13.12-2.2-18.5-4.62-27.91L712.11,1052.37z"
			/>
	</g>
</g>
<path class="st4" d="M1008.76,1522.81c0.1,11.73-9.39,21.3-21.13,21.3h-710.5c-11.74,0-21.23-9.56-21.13-21.3
	c0.49-57.7,4.1-198.37,27.98-275.35c6.86-22.06,14.77-38.83,24.93-54.18c5.7-8.62,30.67-44.88,79.47-69.67
	c12.15-6.18,24.04-10.77,35.35-14.17c21.77-6.46,45.79-10.17,72.15-9.06l42.36,37.76l0.88,0.78l93.26,83.15l94.14-83.94l42.36-37.76
	c22.07-1.02,48.01,1.72,72.15,9.06c11.31,3.4,23.21,7.99,35.35,14.17c48.79,24.8,73.76,61.05,79.47,69.67
	c10.16,15.35,18.07,32.12,24.93,54.18C1004.66,1324.43,1008.28,1465.1,1008.76,1522.81z"/>
<path class="st5" d="M841.03,1109.43l-39.41,103.8l-24.42,64.29l-101.22,266.58h-87.21l-101.22-266.58l-21.5-56.63l-42.32-111.46
	c21.77-6.46,45.79-10.17,72.15-9.06l42.36,37.76l0.88,0.78l93.26,83.15l94.14-83.94l42.36-37.76
	C790.95,1099.36,816.89,1102.1,841.03,1109.43z"/>
<path class="st6" d="M381.75,1544.11v-194.78c0-8.54,6.55-15.89,15.07-16.31c9.12-0.45,16.67,6.84,16.67,15.85v195.24H381.75z"/>
<path class="st6" d="M851.27,1544.11v-194.77c0-8.54,6.55-15.9,15.07-16.32c9.11-0.45,16.68,6.83,16.68,15.85v195.24H851.27z"/>
<g>
	<path class="st7" d="M802.06,841.13c52.98,17.03,25.62,105.89-15.24,112.77c-4.52,21.23-14.85,57.11-40.08,86.96
		c-14.12,16.71-27.76,26.3-31.16,28.64c-7.54,5.18-23.63,16.03-47.52,21.68c-6.34,1.5-30.81,6.78-61.55,0
		c-5.96-1.32-34.22-7.95-62.33-30.97c-7.17-5.87-33.9-28.83-48.3-68.9c-4.66-12.97-7.5-28.44-8.57-36.39
		c-41.79-12.13-68.97-74.04-23.35-113.87l10.55-110.91l165.13-40.76c0,0,91.56,23.13,93.21,25.34
		C734.5,716.93,802.06,841.13,802.06,841.13z"/>
	<g>
		<g>
			<path class="st8" d="M635.82,1025.06c-17.63,0-35.26-6.71-48.68-20.13c-3.12-3.12-3.12-8.19,0-11.31c3.12-3.12,8.19-3.12,11.31,0
				c20.6,20.6,54.13,20.6,74.74,0c3.12-3.12,8.19-3.12,11.31,0c3.12,3.12,3.12,8.19,0,11.31
				C671.08,1018.35,653.45,1025.06,635.82,1025.06z"/>
		</g>
	</g>
	<g>
		<circle class="st8" cx="571.78" cy="886.21" r="21.6"/>
		<circle class="st8" cx="699.85" cy="886.21" r="21.6"/>
	</g>
</g>
<path class="st8" d="M677.27,748.13c-3.52,5.79-9.58,13.95-19.48,20.13c-8.45,5.27-16.99,7.42-25.27,8.22
	c-8.72,0.85-17.51,0.05-26.07-1.8c-8.35-1.81-25.28-3.82-56.18-1.68c-17.96,1.24-37.14,2.22-53.36,10.86
	c-20.67,11.02-28.01,33.9-31.95,55.45c-0.16,0.87-0.66,1.99-1.53,1.81c-0.37-0.08-0.63-0.39-0.85-0.69
	c-6.27-8.33-7.68-21.82-8.78-31.81c-3.5-31.85-3.14-57.08-0.13-64.25c1.82-4.33,11.02-25.48,32.72-46.45
	c35.08-33.9,92.86-51.66,122.26-57.76c23.8-4.94,48.97-7.45,73.56-5.74c13.71,0.95,28.07,2.7,41.4,6.08
	c10.95,2.77,21.81,8.02,28.39,17.21c7.09,9.89,8.8,22.4,17.29,31.46c9.26,9.89,21.89,15.8,31.37,25.46
	c12.67,12.92,25.29,33.26,27.12,51.5c1.65,16.42-5.55,31.93-13.85,45.62c-1.53,2.53-10.37,30.97-11.86,29.39
	c-3.43-3.62-46.76-15.27-81.16-57.38c-8.15-9.97-11.74-14.3-14.8-17.29c-2.04-2-8.35-7.98-17.66-14.45
	C685.43,749.91,679,745.21,677.27,748.13L677.27,748.13z"/>
</svg>
